<?xml version="1.0" encoding="UTF-8"?>
<svg xmlns="http://www.w3.org/2000/svg" viewBox="0 0 1280 720">
  <!-- 背景 -->
  <rect width="1280" height="720" fill="{{BG_COLOR}}"/>

  <!-- 页眉 -->
  <rect x="0" y="0" width="1280" height="70" fill="{{HEADER_BG}}"/>
  <rect x="0" y="0" width="6" height="70" fill="{{ACCENT}}"/>

  <!-- 页面标题 -->
  <text x="40" y="46" fill="#FFFFFF" font-family="{{TITLE_FONT}}" font-size="28" font-weight="bold">目 录</text>

  <!-- 右上角 Logo -->
  <text x="1200" y="46" text-anchor="end" fill="#FFFFFF" font-family="{{TITLE_FONT}}" font-size="18" font-weight="bold">{{LOGO}}</text>

  <!-- 目录项 01 -->
  <rect x="80" y="100" width="540" height="75" fill="{{HEADER_BG}}" fill-opacity="0.06" rx="8"/>
  <rect x="80" y="100" width="6" height="75" fill="{{PRIMARY}}" rx="3"/>
  <text x="110" y="138" fill="{{PRIMARY}}" font-family="{{TITLE_FONT}}" font-size="28" font-weight="bold">01</text>
  <text x="160" y="138" fill="{{PRIMARY}}" font-family="{{TITLE_FONT}}" font-size="20" font-weight="bold">{{TOC_ITEM_1_TITLE}}</text>
  <text x="110" y="162" fill="{{TEXT_SECONDARY}}" font-family="{{BODY_FONT}}" font-size="13">{{TOC_ITEM_1_DESC}}</text>

  <!-- 目录项 02 -->
  <rect x="660" y="100" width="540" height="75" fill="{{HEADER_BG}}" fill-opacity="0.06" rx="8"/>
  <rect x="660" y="100" width="6" height="75" fill="{{PRIMARY}}" rx="3"/>
  <text x="690" y="138" fill="{{PRIMARY}}" font-family="{{TITLE_FONT}}" font-size="28" font-weight="bold">02</text>
  <text x="740" y="138" fill="{{PRIMARY}}" font-family="{{TITLE_FONT}}" font-size="20" font-weight="bold">{{TOC_ITEM_2_TITLE}}</text>
  <text x="690" y="162" fill="{{TEXT_SECONDARY}}" font-family="{{BODY_FONT}}" font-size="13">{{TOC_ITEM_2_DESC}}</text>

  <!-- 目录项 03 -->
  <rect x="80" y="195" width="540" height="75" fill="{{HEADER_BG}}" fill-opacity="0.06" rx="8"/>
  <rect x="80" y="195" width="6" height="75" fill="{{ACCENT}}" rx="3"/>
  <text x="110" y="233" fill="{{PRIMARY}}" font-family="{{TITLE_FONT}}" font-size="28" font-weight="bold">03</text>
  <text x="160" y="233" fill="{{PRIMARY}}" font-family="{{TITLE_FONT}}" font-size="20" font-weight="bold">{{TOC_ITEM_3_TITLE}}</text>
  <text x="110" y="257" fill="{{TEXT_SECONDARY}}" font-family="{{BODY_FONT}}" font-size="13">{{TOC_ITEM_3_DESC}}</text>

  <!-- 目录项 04 -->
  <rect x="660" y="195" width="540" height="75" fill="{{HEADER_BG}}" fill-opacity="0.06" rx="8"/>
  <rect x="660" y="195" width="6" height="75" fill="{{ACCENT}}" rx="3"/>
  <text x="690" y="233" fill="{{PRIMARY}}" font-family="{{TITLE_FONT}}" font-size="28" font-weight="bold">04</text>
  <text x="740" y="233" fill="{{PRIMARY}}" font-family="{{TITLE_FONT}}" font-size="20" font-weight="bold">{{TOC_ITEM_4_TITLE}}</text>
  <text x="690" y="257" fill="{{TEXT_SECONDARY}}" font-family="{{BODY_FONT}}" font-size="13">{{TOC_ITEM_4_DESC}}</text>

  <!-- 目录项 05 -->
  <rect x="80" y="290" width="540" height="75" fill="{{HEADER_BG}}" fill-opacity="0.06" rx="8"/>
  <rect x="80" y="290" width="6" height="75" fill="{{PRIMARY}}" rx="3"/>
  <text x="110" y="328" fill="{{PRIMARY}}" font-family="{{TITLE_FONT}}" font-size="28" font-weight="bold">05</text>
  <text x="160" y="328" fill="{{PRIMARY}}" font-family="{{TITLE_FONT}}" font-size="20" font-weight="bold">{{TOC_ITEM_5_TITLE}}</text>
  <text x="110" y="352" fill="{{TEXT_SECONDARY}}" font-family="{{BODY_FONT}}" font-size="13">{{TOC_ITEM_5_DESC}}</text>

  <!-- 目录项 06 -->
  <rect x="660" y="290" width="540" height="75" fill="{{HEADER_BG}}" fill-opacity="0.06" rx="8"/>
  <rect x="660" y="290" width="6" height="75" fill="{{PRIMARY}}" rx="3"/>
  <text x="690" y="328" fill="{{PRIMARY}}" font-family="{{TITLE_FONT}}" font-size="28" font-weight="bold">06</text>
  <text x="740" y="328" fill="{{PRIMARY}}" font-family="{{TITLE_FONT}}" font-size="20" font-weight="bold">{{TOC_ITEM_6_TITLE}}</text>
  <text x="690" y="352" fill="{{TEXT_SECONDARY}}" font-family="{{BODY_FONT}}" font-size="13">{{TOC_ITEM_6_DESC}}</text>

  <!-- 目录项 07 -->
  <rect x="80" y="385" width="540" height="75" fill="{{HEADER_BG}}" fill-opacity="0.06" rx="8"/>
  <rect x="80" y="385" width="6" height="75" fill="{{ACCENT}}" rx="3"/>
  <text x="110" y="423" fill="{{PRIMARY}}" font-family="{{TITLE_FONT}}" font-size="28" font-weight="bold">07</text>
  <text x="160" y="423" fill="{{PRIMARY}}" font-family="{{TITLE_FONT}}" font-size="20" font-weight="bold">{{TOC_ITEM_7_TITLE}}</text>
  <text x="110" y="447" fill="{{TEXT_SECONDARY}}" font-family="{{BODY_FONT}}" font-size="13">{{TOC_ITEM_7_DESC}}</text>

  <!-- 目录项 08 -->
  <rect x="660" y="385" width="540" height="75" fill="{{HEADER_BG}}" fill-opacity="0.06" rx="8"/>
  <rect x="660" y="385" width="6" height="75" fill="{{ACCENT}}" rx="3"/>
  <text x="690" y="423" fill="{{PRIMARY}}" font-family="{{TITLE_FONT}}" font-size="28" font-weight="bold">08</text>
  <text x="740" y="423" fill="{{PRIMARY}}" font-family="{{TITLE_FONT}}" font-size="20" font-weight="bold">{{TOC_ITEM_8_TITLE}}</text>
  <text x="690" y="447" fill="{{TEXT_SECONDARY}}" font-family="{{BODY_FONT}}" font-size="13">{{TOC_ITEM_8_DESC}}</text>

  <!-- 页脚 -->
  <line x1="40" y1="665" x2="1240" y2="665" stroke="{{HEADER_BG}}" stroke-opacity="0.15" stroke-width="1"/>
  <text x="1220" y="698" text-anchor="end" fill="{{TEXT_LIGHT}}" font-family="{{BODY_FONT}}" font-size="14">{{PAGE_NUM}}</text>
</svg>
